HIERARCHY
ROOT Hip
{
  OFFSET 0.0 0.0 0.0
  CHANNELS 6 Xposition Yposition Zposition Xrotation Yrotation Zrotation
  JOINT LowerSpine
  {
    OFFSET 0.0 0.061367 -0.03653
    CHANNELS 3 Xrotation Yrotation Zrotation
    JOINT MiddleSpine
    {
      OFFSET 0.0 0.056002 0.002633
      CHANNELS 3 Xrotation Yrotation Zrotation
      JOINT Chest
      {
        OFFSET 0.0 0.069296 -0.013882
        CHANNELS 3 Xrotation Yrotation Zrotation
        JOINT Neck
        {
          OFFSET 0.0 0.156156 -0.002923
          CHANNELS 3 Xrotation Yrotation Zrotation
          JOINT Head
          {
            OFFSET 0.0 0.088183 0.023986
            CHANNELS 3 Xrotation Yrotation Zrotation
            End Site
            {
              OFFSET 1e-06 0.123215 0.003678
            }
          }
        }
        JOINT LClavicle
        {
          OFFSET 0.014189 0.150698 0.046467
          CHANNELS 3 Xrotation Yrotation Zrotation
          JOINT LShoulder
          {
            OFFSET 0.082893 0.021616 -0.034976
            CHANNELS 3 Xrotation Yrotation Zrotation
            JOINT LForearm
            {
              OFFSET 0.195645 -0.000695 -0.001695
              CHANNELS 3 Xrotation Yrotation Zrotation
              JOINT LHand
              {
                OFFSET 0.163209 0.000474 -0.000977
                CHANNELS 3 Xrotation Yrotation Zrotation
                End Site
                {
                  OFFSET 0.0 0.006864 0.0
                }
              }
            }
          }
        }
        JOINT RClavicle
        {
          OFFSET -0.014189 0.150698 0.046467
          CHANNELS 3 Xrotation Yrotation Zrotation
          JOINT RShoulder
          {
            OFFSET -0.082908 0.021619 -0.034982
            CHANNELS 3 Xrotation Yrotation Zrotation
            JOINT RForearm
            {
              OFFSET -0.195645 -0.000695 -0.001695
              CHANNELS 3 Xrotation Yrotation Zrotation
              JOINT RHand
              {
                OFFSET -0.163209 0.000474 -0.000977
                CHANNELS 3 Xrotation Yrotation Zrotation
                End Site
                {
                  OFFSET 0.0 0.006864 0.0
                }
              }
            }
          }
        }
      }
    }
  }
  JOINT RThigh
  {
    OFFSET -0.072558 0.02774 -0.005953
    CHANNELS 3 Xrotation Yrotation Zrotation
    JOINT RShin
    {
      OFFSET -0.005253 -0.285537 0.0
      CHANNELS 3 Xrotation Yrotation Zrotation
      JOINT RFoot
      {
        OFFSET 0.0 -0.28038 0.0
        CHANNELS 3 Xrotation Yrotation Zrotation
        JOINT RToe
        {
          OFFSET 0.0 -0.030816 0.064441
          CHANNELS 3 Xrotation Yrotation Zrotation
          End Site
          {
            OFFSET 0.0 0.0 0.043231
          }
        }
      }
    }
  }
  JOINT LThigh
  {
    OFFSET 0.072557 0.027741 -0.005953
    CHANNELS 3 Xrotation Yrotation Zrotation
    JOINT LShin
    {
      OFFSET 0.005253 -0.285539 0.0
      CHANNELS 3 Xrotation Yrotation Zrotation
      JOINT LFoot
      {
        OFFSET 0.0 -0.28038 0.0
        CHANNELS 3 Xrotation Yrotation Zrotation
        JOINT LToe
        {
          OFFSET 0.0 -0.030816 0.064441
          CHANNELS 3 Xrotation Yrotation Zrotation
          End Site
          {
            OFFSET 0.0 0.0 0.043231
          }
        }
      }
    }
  }
}
MOTION
Frames: 10
Frame Time: 0.03333333333333333
-0.028184 0.564191 -0.064298 -2.546528 -2.79516 1.94341 2.201164 -0.252705 -0.008958 -0.161636 1.153911 0.379571 -2.006412 5.383662 -1.175199 1.541783 0.303433 0.384723 0.022555 -0.211889 -0.02862 -1.354525 -1.672563 -9.458858 13.84401 -24.194098 -54.426937 9.001926 -42.636814 1.548935 0.072099 0.122577 -0.073799 -1.888549 1.461415 12.137904 1.734877 38.194859 63.136528 4.749293 30.863791 2.573478 -0.170475 -0.070462 -0.010033 -9.692979 -1.890876 -0.634494 16.315323 -0.812918 1.664429 -2.893076 0.325645 -0.184515 -0.074694 0.195807 0.10042 -1.162516 12.271482 3.549143 5.814563 7.619806 -5.865475 -2.631387 -0.206273 0.221022 0.074463 -0.084913 -0.029213 
-0.026619 0.565012 -0.069387 -1.883548 -3.032133 1.935918 2.200498 -0.254375 -0.023037 -0.31932 1.051912 0.418857 -2.880764 5.176073 -1.145857 1.563152 0.305209 0.394139 0.02324 -0.208724 -0.029027 -1.389409 -1.722504 -9.387383 14.281557 -23.490351 -54.864506 9.268796 -43.097439 1.479485 0.072083 0.123897 -0.074898 -1.876903 1.468979 12.126278 2.191927 37.836979 63.478146 4.726032 30.200737 2.590375 -0.16014 -0.071114 -0.008428 -11.345765 -1.895406 -0.937048 17.079769 -0.934812 1.855747 -2.973654 0.215966 -0.24381 -0.064534 0.19808 0.096421 -2.687768 12.181245 3.397831 6.227942 7.561685 -5.907108 -2.677978 -0.250902 0.186848 0.072299 -0.081226 -0.024159 
-0.024499 0.566108 -0.074046 -0.498688 -3.01518 1.973487 2.163617 -0.248415 -0.038902 -0.531821 0.91973 0.440468 -4.075499 4.878925 -1.127797 1.585768 0.287151 0.397658 0.022092 -0.196741 -0.028453 -1.442351 -1.716085 -9.337125 14.996195 -22.30994 -55.342098 9.303395 -43.481205 1.278967 0.068034 0.118699 -0.068817 -1.840593 1.520572 12.131342 2.755195 36.998135 63.858704 4.420421 29.61327 2.773782 -0.147179 -0.062421 -0.005748 -13.621035 -1.845761 -1.287447 17.758665 -1.084353 2.080077 -3.208245 0.086226 -0.292044 -0.056468 0.192007 0.085404 -5.150497 11.973911 3.100785 6.907417 7.522287 -5.813429 -2.700262 -0.289774 0.15258 0.067511 -0.072877 -0.017628 
-0.022274 0.566984 -0.078134 0.985945 -2.963367 1.991991 2.111156 -0.248316 -0.056407 -0.752328 0.811726 0.471842 -5.248958 4.613801 -1.064255 1.593951 0.275351 0.40051 0.022293 -0.1854 -0.02859 -1.483991 -1.693144 -9.298727 15.774524 -21.148697 -55.780518 9.374798 -43.97958 1.14697 0.064333 0.113487 -0.06343 -1.797673 1.553686 12.140371 3.366036 36.028709 64.160637 4.157094 29.087021 2.872774 -0.133419 -0.057484 -0.00438 -16.008169 -1.823728 -1.615857 18.350903 -1.288728 2.299796 -3.40233 -0.022524 -0.330759 -0.048838 0.186731 0.075818 -7.719524 11.750059 2.891694 7.637882 7.478035 -5.680757 -2.712786 -0.336264 0.116395 0.062142 -0.063488 -0.012721 
-0.020871 0.567637 -0.080822 2.156672 -2.849013 2.036117 2.057892 -0.245512 -0.070989 -0.925936 0.72365 0.488266 -6.089348 4.349521 -1.002337 1.601191 0.263091 0.398956 0.021144 -0.173018 -0.026898 -1.523134 -1.661755 -9.286255 16.433619 -20.154078 -56.059719 9.410942 -44.598495 1.041784 0.058941 0.104404 -0.056595 -1.770127 1.614094 12.160875 4.007273 35.087666 64.282913 4.005853 29.036211 2.99016 -0.123669 -0.046962 -0.002869 -17.801472 -1.847735 -1.872599 18.608833 -1.476185 2.446466 -3.558088 -0.111096 -0.352954 -0.039524 0.174297 0.066203 -9.656488 11.59055 2.729074 8.093655 7.458439 -5.522377 -2.712197 -0.366125 0.087602 0.054211 -0.051468 -0.0083 
-0.018984 0.565746 -0.087159 2.749211 -3.008395 2.029701 2.010326 -0.248443 -0.077518 -1.031031 0.659927 0.5142 -6.709517 4.144336 -0.938543 1.59448 0.254128 0.396681 0.021146 -0.164599 -0.025329 -1.557852 -1.656762 -9.313906 16.968918 -19.632351 -56.175072 9.452802 -44.920624 1.014167 0.055869 0.099313 -0.052961 -1.757247 1.687169 12.120411 4.78236 34.243759 64.156387 4.125937 30.059988 3.106532 -0.118734 -0.040459 -0.002021 -18.50452 -2.094017 -2.084073 18.46636 -1.689834 2.544461 -3.564842 -0.152716 -0.35558 -0.035611 0.165512 0.059569 -10.475396 11.429519 2.55059 8.042765 7.355451 -5.331709 -2.713319 -0.395242 0.072648 0.050576 -0.046078 -0.005069 
-0.014931 0.562381 -0.088499 2.554183 -3.577752 1.857021 1.999913 -0.270298 -0.09173 -1.043755 0.628686 0.546171 -6.858131 4.058532 -0.913781 1.60657 0.253967 0.404726 0.022355 -0.160652 -0.023253 -1.576981 -1.669349 -9.420108 16.877983 -19.858833 -56.31665 9.361083 -44.016552 1.112391 0.056102 0.098541 -0.052912 -1.756485 1.742064 12.025226 5.256838 33.588665 64.020767 4.365614 31.749117 3.143545 -0.119173 -0.04097 -0.002103 -18.122612 -2.47929 -2.083555 18.050785 -1.875048 2.606192 -3.405267 -0.130517 -0.336255 -0.035115 0.165276 0.057908 -9.976747 11.272948 2.489079 7.655909 7.203486 -5.129771 -2.806738 -0.356496 0.102708 0.050633 -0.047821 -0.004308 
-0.016923 0.562254 -0.084429 1.962369 -3.86504 1.615833 1.978953 -0.285083 -0.080824 -0.988374 0.623549 0.57619 -6.456357 4.02388 -1.012225 1.615479 0.267326 0.415763 0.025147 -0.175022 -0.022724 -1.592432 -1.739893 -9.568033 16.680496 -20.200417 -56.510761 9.291259 -42.982002 1.328078 0.058751 0.103997 -0.056362 -1.786927 1.842018 11.925065 5.799344 32.866348 63.800396 4.581351 34.44453 3.262826 -0.134078 -0.045063 -0.003766 -17.114841 -2.8337 -1.924605 17.450373 -1.978972 2.52921 -3.202257 -0.069321 -0.314104 -0.039446 0.170987 0.062111 -8.935501 11.040788 2.585603 7.15828 6.971552 -4.934023 -2.885141 -0.28545 0.163615 0.057518 -0.059906 -0.006813 
-0.020024 0.560969 -0.085842 1.517733 -4.055568 1.453903 1.97567 -0.29284 -0.058698 -0.902138 0.619917 0.560621 -5.826323 4.041927 -1.327078 1.640618 0.286034 0.439489 0.026624 -0.190824 -0.023365 -1.591486 -1.779043 -9.672587 16.530231 -21.135288 -56.376308 9.516034 -41.524704 1.42134 0.061093 0.108059 -0.059384 -1.800544 1.955718 11.835248 5.887077 33.418472 63.692108 4.966741 36.129116 3.422071 -0.154762 -0.04382 -0.005563 -16.489223 -2.730815 -1.664594 17.428677 -1.878744 2.375985 -3.129951 -0.051899 -0.305121 -0.047875 0.172528 0.067556 -8.384058 11.034338 3.028293 7.156929 7.049598 -4.982433 -2.991453 -0.180132 0.223179 0.065482 -0.071908 -0.011335 
-0.023128 0.560346 -0.086422 1.143903 -4.208948 1.481237 1.996912 -0.29522 -0.026715 -0.837067 0.624376 0.528003 -5.341072 4.168461 -1.613203 1.66501 0.30403 0.467532 0.027242 -0.203664 -0.025057 -1.592507 -1.82112 -9.688955 16.525215 -22.083063 -56.035412 9.75189 -40.467377 1.387154 0.062478 0.111041 -0.060291 -1.81829 2.057826 11.757105 5.644459 34.531284 63.626595 5.31261 36.286072 3.539054 -0.173377 -0.039793 -0.007564 -15.983804 -2.308969 -1.380527 17.667982 -1.597787 2.206029 -3.216616 -0.050573 -0.306209 -0.058475 0.170213 0.072661 -7.945505 11.086178 3.422369 7.219257 7.13827 -5.143064 -3.07272 -0.118482 0.254279 0.072017 -0.079729 -0.01605 
